<?xml version="1.0" encoding="utf-8"?>
<!-- Generator: Adobe Illustrator 26.0.3, SVG Export Plug-In . SVG Version: 6.00 Build 0)  -->
<svg version="1.0" id="Layer_1" xmlns="http://www.w3.org/2000/svg" xmlns:xlink="http://www.w3.org/1999/xlink" x="0px" y="0px"
	 viewBox="0 0 250 185.3" style="enable-background:new 0 0 250 185.3;" xml:space="preserve">
<style type="text/css">
	.st0{fill:#019AB3;}
</style>
<path d="M186.6,122.4c0-2.3-1.3-3.5-3.8-3.5h-5.1v12.9h1.4v-5.5h3.6c1.6,0,2.4,0.7,2.4,2.2v3.4h1.4v-3.4c0.1-1.1-0.4-2.2-1.3-2.9
	C186.2,124.8,186.7,123.6,186.6,122.4 M185.2,122.4c0,0.6-0.2,1.2-0.6,1.7c-0.5,0.5-1.3,0.7-2,0.7h-3.5v-4.6h3.7
	C184.5,120.2,185.2,120.9,185.2,122.4"/>
<path d="M146.9,129c-0.7-1.1-1.7-2.6-3-4.4c-1.6-2.4-2.8-4.2-3.6-5.5l-0.1-0.2h-1.3v12.9h1.4v-10.2l6.6,10l0.1,0.2h1.3v-12.9h-1.4
	L146.9,129z"/>
<rect x="151.1" y="118.9" width="1.4" height="12.9"/>
<path d="M134.9,126.9c0,2.5-1,3.6-3.2,3.6s-3.2-1.2-3.2-3.7v-7.9h-1.4v8c-0.1,1.2,0.2,2.4,0.8,3.5c2,2.1,5.2,2.1,7.3,0.1
	c0,0,0.1-0.1,0.1-0.1c0.6-1,1-2.2,0.9-3.4v-8h-1.4V126.9z"/>
<polygon points="168.6,125.7 174.7,125.7 174.7,124.4 168.6,124.4 168.6,120.2 175.5,120.2 175.5,118.9 167.2,118.9 167.2,131.8 
	175.6,131.8 175.6,130.4 168.6,130.4 "/>
<polygon points="159.9,129.2 156.2,118.9 154.7,118.9 159.4,131.8 160.5,131.8 165.1,118.9 163.6,118.9 "/>
<polygon points="223.3,118.9 219.4,124.2 215.4,118.9 213.7,118.9 218.7,125.6 218.7,131.7 220.1,131.7 220.1,125.6 225,118.9 "/>
<path d="M196.7,125.5c-1.1-0.5-2.2-0.9-3.4-1.1c-0.7-0.1-1.4-0.3-2-0.7c-0.5-0.3-0.7-0.9-0.7-1.4c0-1.4,0.9-2.1,2.9-2.1
	c0.9-0.1,1.7,0.2,2.4,0.7c0.5,0.6,0.7,1.3,0.7,2.1v0.4h1.4V123c-0.1-2.7-1.6-4.1-4.5-4.1c-3.5,0-4.3,1.9-4.3,3.4
	c-0.1,1.1,0.5,2.1,1.4,2.7c0.8,0.5,1.7,0.8,2.7,1c1,0.3,1.7,0.5,2,0.6c0.4,0.1,0.8,0.4,1.1,0.7c0.2,0.3,0.3,0.7,0.3,1.1
	c0,0.6-0.2,1.2-0.8,1.6c-0.7,0.4-1.4,0.6-2.2,0.6c-2.4,0-3.5-1-3.5-3.1V127H189v0.7c-0.1,1.2,0.4,2.4,1.2,3.2c1,0.8,2.3,1.3,3.6,1.2
	c1.1,0.1,2.2-0.3,3.1-0.9c0.9-0.6,1.4-1.6,1.3-2.6C198.4,127.3,197.8,126.2,196.7,125.5"/>
<polygon points="203.6,120.2 207.4,120.2 207.4,131.7 208.8,131.7 208.8,120.2 212.6,120.2 212.6,118.9 203.6,118.9 "/>
<rect x="200.4" y="118.9" width="1.4" height="12.9"/>
<polygon points="185.3,103.9 191.4,103.9 191.4,102.5 185.3,102.5 185.3,98.4 192.2,98.4 192.2,97 183.9,97 183.9,109.9 
	192.2,109.9 192.2,108.5 185.3,108.5 "/>
<path d="M214.3,97v10.1c-0.7-1.1-1.7-2.6-3-4.4c-1.6-2.4-2.8-4.2-3.6-5.5l-0.1-0.2h-1.3v12.9h1.4V99.7l6.7,10.2h1.3V97H214.3z"/>
<polygon points="128.5,103.9 134.6,103.9 134.6,102.5 128.5,102.5 128.5,98.4 135.4,98.4 135.4,97 127.1,97 127.1,109.9 
	135.5,109.9 135.5,108.5 128.5,108.5 "/>
<path d="M158.3,100.5c0-2.3-1.3-3.5-3.8-3.5h-5.1v12.9h1.4v-5.5h3.6c1.6,0,2.4,0.7,2.4,2.2v3.3h1.4v-3.4c0.1-1.1-0.4-2.2-1.3-2.9
	C157.8,102.9,158.4,101.7,158.3,100.5 M156.9,100.6c0,0.6-0.2,1.2-0.6,1.7c-0.5,0.5-1.3,0.7-2,0.7h-3.5v-4.6h3.7
	C156.1,98.4,156.9,99.1,156.9,100.6"/>
<path d="M145.4,105c0,2.5-1,3.6-3.2,3.6s-3.1-1.2-3.1-3.7V97h-1.4v8c-0.1,1.2,0.2,2.4,0.9,3.4c2,2.1,5.2,2.1,7.3,0.1
	c0,0,0.1-0.1,0.1-0.1c0.6-1,0.9-2.2,0.9-3.4v-8h-1.4V105z"/>
<path d="M178.2,96.7h-4.9v12.9h1.4v-5.4h3.3c1.1,0.1,2.2-0.3,3-1c0.8-0.7,1.2-1.7,1.1-2.7C182.1,98,180.8,96.7,178.2,96.7
	 M178.2,102.8h-3.6v-4.7h3.6c1.7,0,2.5,0.8,2.5,2.4c0,0.6-0.2,1.2-0.6,1.6C179.6,102.6,178.9,102.9,178.2,102.8"/>
<path d="M165.6,97.1c-1.8-0.1-3.4,0.7-4.5,2.1c-0.8,1.3-1.2,2.8-1.1,4.2c-0.1,1.5,0.3,3.1,1.2,4.4c1,1.5,2.7,2.3,4.4,2.2
	c1.8,0.1,3.5-0.8,4.5-2.2c0.8-1.3,1.2-2.8,1.1-4.3c0.1-1.5-0.3-3-1.2-4.2C169,97.7,167.3,96.9,165.6,97.1 M165.6,108.6
	c-1.3,0.1-2.6-0.6-3.3-1.7c-0.6-1-0.9-2.2-0.9-3.5c0-1.2,0.2-2.4,0.9-3.4c1.5-1.8,4.2-2.1,6-0.7c0.2,0.2,0.5,0.4,0.7,0.7
	c0.6,1,1,2.2,0.9,3.4c0,1.2-0.3,2.4-0.9,3.5C168.2,108.1,166.9,108.8,165.6,108.6"/>
<path d="M198.8,97l-4.9,12.9h1.6l1.4-3.9h4.8l1.4,3.9h1.5L199.9,97H198.8z M201.2,104.6h-3.8l1.9-5.1L201.2,104.6z"/>
<path d="M157.7,85.3c-0.7-1.1-1.7-2.6-2.9-4.4c-1.6-2.4-2.8-4.2-3.6-5.5l-0.1-0.2h-1.3V88h1.4V77.9l6.6,10l0.1,0.2h1.3V75.2h-1.4
	V85.3z"/>
<polygon points="140.7,82 146.7,82 146.7,80.7 140.7,80.7 140.7,76.5 147.5,76.5 147.5,75.2 139.3,75.2 139.3,88 147.6,88 
	147.6,86.7 140.7,86.7 "/>
<polygon points="160.8,76.5 164.6,76.5 164.6,88 166,88 166,76.5 169.8,76.5 169.8,75.2 160.8,75.2 "/>
<path d="M132.7,76.4c1.3-0.1,2.6,0.6,3.2,1.8l0.2,0.4l1.2-0.9l-0.2-0.3c-0.9-1.6-2.6-2.5-4.5-2.4c-1.8-0.1-3.5,0.8-4.5,2.3
	c-0.8,1.3-1.2,2.8-1.1,4.3c0,1.5,0.3,3,1.1,4.2c1,1.5,2.7,2.3,4.4,2.2c1.8,0.1,3.5-0.8,4.4-2.4l0.2-0.3l-1.1-0.9l-0.2,0.4
	c-0.7,1.2-1.9,1.9-3.3,1.8c-1.3,0.1-2.6-0.6-3.3-1.7c-0.6-1-0.9-2.2-0.9-3.4c0-1.3,0.3-2.5,1-3.5C130.1,77,131.4,76.3,132.7,76.4"/>
<path d="M180.7,78.7c0-2.3-1.3-3.5-3.8-3.5h-5.1V88h1.4v-5.5h3.6c1.6,0,2.4,0.7,2.4,2.2V88h1.4v-3.4c0.1-1.1-0.4-2.2-1.3-2.9
	C180.3,81.1,180.8,79.9,180.7,78.7 M179.3,78.7c0,0.6-0.2,1.3-0.6,1.7c-0.6,0.5-1.3,0.7-2,0.7h-3.5v-4.5h3.7
	C178.6,76.5,179.3,77.2,179.3,78.7"/>
<polygon points="195.8,86.7 195.8,75.2 194.4,75.2 194.4,88 202.1,88 202.1,86.7 "/>
<path d="M186.9,75.2L182,88h1.6l1.4-3.9h4.8l1.4,3.9h1.5l-4.7-12.9H186.9z M189.3,82.8h-3.8l1.9-5.1L189.3,82.8z"/>
<path d="M55.5,80.2c0.8-0.8,1.9-1.3,3-1.2c0.8,0,1.1,0.3,5.5,2.6l2.5-2.6c-1.7-2.8-4.8-4.4-8-4.4c-5.1-0.1-9.2,3.9-9.3,9v5
	c0.1,5,4.3,9.1,9.3,9c3.3,0,6.3-1.6,8-4.4L64,90.5c-4.4,2.3-4.7,2.6-5.5,2.6c-1.1,0.1-2.2-0.4-3-1.2c-0.5-0.5-0.8-1.2-0.7-1.9v-8
	C54.7,81.3,55,80.6,55.5,80.2"/>
<polygon points="68.9,97 84.6,97 84.6,92.5 74.4,92.5 74.4,88.1 82.8,88.1 82.8,83.6 74.4,83.6 74.4,79.6 84.6,79.6 84.6,75.2 
	68.9,75.2 "/>
<path d="M99.8,75.2v13.6l0,0c-0.1,1.9-1.7,3.3-3.6,3.2c-1.8-0.1-3.1-1.5-3.2-3.3c0,0,0-0.1,0-0.2V75.2h-5.4V89
	c0.2,4.9,4.4,8.7,9.3,8.4c4.6-0.2,8.2-3.9,8.4-8.4V75.2H99.8z"/>
<path d="M57.8,53.3c-1.4,0-3.2,0.1-3.2,0.1l3.2,9l3.2-8.9C59.9,53.4,58.8,53.4,57.8,53.3"/>
<path d="M71.7,56.1l-1.2,8.6l6.7-5.5c-0.9-0.6-1.7-1.2-2.7-1.7C73.3,56.9,71.7,56.1,71.7,56.1"/>
<path d="M57.8,109.8l-3.2,8.9c1,0.1,2.1,0.2,3.2,0.2c1.4,0,3.2-0.2,3.2-0.2L57.8,109.8z"/>
<path class="st0" d="M29.4,69.6c-0.7,1.2-1.4,2.8-1.4,2.8l9.3,1.7l-6.2-7.2C30.5,67.8,30,68.7,29.4,69.6"/>
<path d="M25,86.1c0,1.4,0.1,3.2,0.1,3.2l8.9-3.2l-8.9-3.2C25,84,25,85.1,25,86.1"/>
<path d="M29.4,102.4c0.7,1.2,1.7,2.7,1.7,2.7l6.2-7.2l-9.3,1.8C28.3,100.6,28.8,101.6,29.4,102.4"/>
<path d="M41.5,114.6c1.2,0.7,2.8,1.5,2.8,1.5l1.7-9.3l-7.2,6.2C39.7,113.4,40.6,114,41.5,114.6"/>
<path d="M74.5,114.3c1.2-0.7,2.7-1.7,2.7-1.7l-7.2-6.2l1.7,9.3C72.7,115.3,73.6,114.8,74.5,114.3"/>
<path d="M41.7,57.4c-1.2,0.7-2.7,1.7-2.7,1.7l7.2,6.2L44.5,56C43.6,56.4,42.7,56.9,41.7,57.4"/>
<path class="st0" d="M116.2,128.8c-0.8,0-1.5,0.7-1.5,1.5c0,0.8,0.7,1.5,1.5,1.5c0.8,0,1.5-0.7,1.5-1.5c0,0,0,0,0,0
	C117.7,129.4,117,128.8,116.2,128.8L116.2,128.8"/>
<path class="st0" d="M116.2,122.8c-0.8,0-1.5,0.7-1.5,1.5c0,0.8,0.7,1.5,1.5,1.5c0.8,0,1.5-0.7,1.5-1.5c0,0,0,0,0,0
	C117.7,123.4,117,122.8,116.2,122.8"/>
<path class="st0" d="M116.2,116.8c-0.8,0-1.5,0.7-1.5,1.5c0,0.8,0.7,1.5,1.5,1.5c0.8,0,1.5-0.7,1.5-1.5c0,0,0,0,0,0
	C117.7,117.4,117,116.8,116.2,116.8"/>
<path class="st0" d="M116.2,110.8c-0.8,0-1.5,0.7-1.5,1.5c0,0.8,0.7,1.5,1.5,1.5c0.8,0,1.5-0.7,1.5-1.5c0,0,0,0,0,0
	C117.7,111.4,117,110.8,116.2,110.8"/>
<path class="st0" d="M116.2,104.8c-0.8,0-1.5,0.7-1.5,1.5c0,0.8,0.7,1.5,1.5,1.5c0.8,0,1.5-0.7,1.5-1.5c0,0,0,0,0,0
	C117.7,105.4,117,104.8,116.2,104.8"/>
<path class="st0" d="M116.2,98.8c-0.8,0-1.5,0.7-1.5,1.5c0,0.8,0.7,1.5,1.5,1.5c0.8,0,1.5-0.7,1.5-1.5c0,0,0,0,0,0
	C117.7,99.4,117,98.8,116.2,98.8"/>
<path class="st0" d="M116.2,92.8c-0.8,0-1.5,0.7-1.5,1.5c0,0.8,0.7,1.5,1.5,1.5c0.8,0,1.5-0.7,1.5-1.5c0,0,0,0,0,0
	C117.7,93.4,117,92.8,116.2,92.8"/>
<path class="st0" d="M116.2,86.8c-0.8,0-1.5,0.7-1.5,1.5c0,0.8,0.7,1.5,1.5,1.5c0.8,0,1.5-0.7,1.5-1.5c0,0,0,0,0,0
	C117.7,87.4,117,86.8,116.2,86.8"/>
<path class="st0" d="M116.2,80.8c-0.8,0-1.5,0.7-1.5,1.5c0,0.8,0.7,1.5,1.5,1.5c0.8,0,1.5-0.7,1.5-1.5c0,0,0,0,0,0
	C117.7,81.4,117,80.8,116.2,80.8L116.2,80.8"/>
<path class="st0" d="M116.2,77.7c0.8,0,1.5-0.7,1.5-1.5s-0.7-1.5-1.5-1.5c-0.8,0-1.5,0.7-1.5,1.5C114.7,77.1,115.3,77.7,116.2,77.7
	C116.2,77.7,116.2,77.7,116.2,77.7"/>
</svg>
