<svg class="w-[99px] h-[16px] md:w-[180px] md:h-[30px]" viewBox="0 0 180 30" fill="none" xmlns="http://www.w3.org/2000/svg"><path d="M177.504 9.94594C176.783 9.94594 176.185 9.7071 175.709 9.22943C175.233 8.75175 174.994 8.16207 174.992 7.46038C174.992 6.75022 175.231 6.15229 175.709 5.66657C176.187 5.18085 176.785 4.93799 177.504 4.93799C178.214 4.93799 178.807 5.18085 179.283 5.66657C179.759 6.15229 179.998 6.75022 180 7.46038C180.006 7.78746 179.946 8.11244 179.823 8.4155C179.7 8.71856 179.516 8.99334 179.283 9.22307C178.807 9.70541 178.214 9.94636 177.504 9.94594ZM177.504 5.30513C176.882 5.30513 176.37 5.51136 175.966 5.92382C175.563 6.33628 175.36 6.84847 175.359 7.46038C175.353 7.73993 175.404 8.0178 175.51 8.27683C175.615 8.53586 175.772 8.77056 175.972 8.96645C176.38 9.37425 176.891 9.57816 177.504 9.57816C178.107 9.57816 178.613 9.37425 179.022 8.96645C179.222 8.77044 179.379 8.5357 179.484 8.27669C179.589 8.01768 179.64 7.73987 179.634 7.46038C179.634 6.84805 179.43 6.33586 179.022 5.92382C178.825 5.72191 178.589 5.56277 178.327 5.45632C178.066 5.34987 177.786 5.2984 177.504 5.30513ZM177.099 8.41764H177.48V8.66283H176.209V8.41764H176.577V6.34624H176.209V6.10422H177.42C177.754 6.10422 178.015 6.16541 178.203 6.2878C178.292 6.34083 178.364 6.41644 178.414 6.50685C178.464 6.59727 178.488 6.69924 178.485 6.80231C178.486 6.87833 178.47 6.95354 178.439 7.02312C178.408 7.09269 178.364 7.15509 178.307 7.2063C178.171 7.32984 178.004 7.41433 177.824 7.45086L178.865 8.66346H178.24L177.287 7.5004H177.102L177.099 8.41764ZM177.356 6.34624H177.102V7.27681H177.356C177.552 7.27681 177.703 7.23552 177.809 7.15422C177.862 7.11222 177.905 7.05802 177.932 6.9962C177.96 6.93438 177.973 6.86678 177.969 6.79914C177.972 6.73362 177.959 6.66835 177.93 6.60946C177.901 6.55057 177.857 6.49999 177.803 6.46248C177.67 6.3784 177.514 6.33778 177.356 6.34624Z" fill="currentColor"></path><path d="M102.063 7.30804C98.4639 7.30804 96.3709 8.79279 95.467 11.5371H95.1173C95.2336 10.7076 95.2965 9.87151 95.3056 9.03398V7.79044H91.7168L91.7975 11.0708V29.2146H95.4186V17.1277C95.4186 12.9683 97.7107 10.1596 101.165 10.1596C104.14 10.1596 105.83 11.9606 105.83 15.2838V29.2199H109.446V14.8764C109.419 10.0309 106.486 7.30804 102.063 7.30804ZM114.627 5.42668V7.79044H111.528V10.5938H114.627V29.1717H118.2V10.5938H122.02V7.79044H118.2V5.42668C118.2 3.98482 118.802 3.42737 120.25 3.42737H122.461V0.645508H119.932C116.23 0.645508 114.627 2.02305 114.627 5.42668ZM149.191 11.4407H148.804C148.915 10.6126 148.971 9.77822 148.971 8.94287V7.79044H145.355L145.436 11.0708V29.2146H149.051V17.4225C149.051 13.4185 150.821 10.6849 153.958 10.6849H155.605V7.39917H154.669C151.44 7.38845 150.036 9.32879 149.191 11.4407ZM175.4 19.202C175.4 11.312 172.107 7.30804 165.715 7.30804C159.645 7.30804 155.987 11.2316 155.987 18.4837C155.987 25.7359 159.484 29.6916 165.914 29.6916C170.697 29.6916 174.474 27.4082 175.061 22.8039H171.563C170.998 25.484 168.792 26.9687 165.935 26.9687C162.04 26.9687 159.866 24.3691 159.543 19.7219H175.421L175.4 19.202ZM159.565 16.999C159.925 12.6359 162.056 10.031 165.715 10.031C169.373 10.031 171.461 12.6359 171.822 16.999H159.565ZM140.932 14.3565C140.932 9.78974 138.317 7.30804 132.452 7.30804C127.384 7.30804 124.048 9.1519 123.844 13.6758H127.459C127.702 11.1941 129.552 10.1114 132.447 10.1114C135.579 10.1114 137.29 11.3924 137.29 14.3565V15.2784L130.725 16.1896C126.34 16.8275 123.085 18.7089 123.085 23.1148C123.085 27.2796 125.942 29.6809 129.961 29.6809C134.836 29.6809 136.052 27.5369 137.295 25.5483H137.742C137.525 26.754 137.449 27.9807 137.516 29.2038H141.131C140.965 27.5262 140.898 25.8402 140.932 24.1547V14.3565ZM137.451 19.7648C137.451 24.7282 133.685 26.8508 130.898 26.8508C128.326 26.8508 126.717 25.4465 126.717 23.1256C126.717 20.6814 128.406 19.3199 131.382 18.8804L137.451 18.0013V19.7648Z" fill="currentColor"></path><path d="M78.5006 7.37061C72.2573 7.37061 68.6807 11.3634 68.6807 18.5151C68.6807 25.6669 72.2573 29.6917 78.5006 29.6917C84.7438 29.6917 88.2832 25.6615 88.2832 18.5151C88.2832 11.3687 84.7438 7.37061 78.5006 7.37061ZM78.5006 26.8963C74.4076 26.8963 72.2573 23.6892 72.2573 18.5151C72.2573 13.3411 74.3863 10.1661 78.5006 10.1661C82.6148 10.1661 84.7012 13.3732 84.7012 18.5151C84.7012 23.6571 82.5935 26.9176 78.5006 26.9176V26.8963Z" fill="currentColor"></path><path d="M56.4657 7.37061C50.1313 7.37061 46.5024 11.3634 46.5024 18.5151C46.5024 25.6669 50.1313 29.6917 56.4657 29.6917C62.8001 29.6917 66.3912 25.6615 66.3912 18.5151C66.3912 11.3687 62.8001 7.37061 56.4657 7.37061ZM56.4657 26.8963C52.3076 26.8963 50.1313 23.6892 50.1313 18.5151C50.1313 13.3411 52.2914 10.1661 56.4657 10.1661C60.64 10.1661 62.7569 13.3732 62.7569 18.5151C62.7569 23.6571 60.6184 26.9176 56.4657 26.9176V26.8963Z" fill="currentColor"></path><path d="M43.2114 0.645508H39.5407C29.771 18.8725 28.7135 20.557 27.8579 23.4973H27.4796C28.2095 20.1792 27.9328 18.1184 27.9328 0.645508H16.1427C12.2404 0.645508 9.11892 3.83961 9.06809 7.65952C9.05804 8.64995 9.12554 9.63966 9.26998 10.6196L12.4917 10.091C12.3731 9.32618 12.3146 8.55328 12.3167 7.77934V7.72855C12.3167 5.4662 14.0786 3.90725 16.1427 3.90725H20.9782C22.7909 3.90725 23.0422 3.70566 23.0422 3.70566L23.2187 3.98757C21.406 6.57693 19.8191 8.83928 14.6066 18.647C12.3153 22.9208 9.77118 26.5405 5.28866 26.5405C3.87685 26.5405 2.92105 26.1642 1.91442 25.6103L0 28.5774C1.35958 29.3822 3.0467 29.8347 5.11218 29.8347C10.9289 29.8347 14.529 25.661 18.1009 18.9994C18.1009 18.9994 23.8159 8.94362 24.2691 7.41002H24.6715C24.1943 9.59766 24.2691 13.1892 24.2691 14.7764V29.1299H27.9271C37.1929 11.86 39.0071 8.94362 39.504 7.41002H39.9078C39.4038 9.59766 39.5294 13.1892 39.5294 29.1299H43.2002L43.2114 0.645508Z" fill="currentColor"></path></svg>