<svg xmlns="http://www.w3.org/2000/svg" viewBox="0 0 513.62 103.04"><defs><style>.cls-1,.cls-3{fill:#677881;}.cls-1{opacity:0.5;}.cls-2{fill:#2c406b;}</style></defs><title>Resurs 1</title><g id="Lager_2" data-name="Lager 2"><g id="Lager_1-2" data-name="Lager 1"><path class="cls-1" d="M248.41,46.53,330.66,18,303.8,103S318.35,30.31,248.41,46.53Z"/><path class="cls-2" d="M231.41,28.53,313.66,0,286.8,85S301.35,12.31,231.41,28.53Z"/><path class="cls-2" d="M16.71,47.58q-1.62,0-1.62,2a6.28,6.28,0,0,0,.16,1.29,20.27,20.27,0,0,0,.81,2.48l11.53,30h.22L39.23,53a17.37,17.37,0,0,0,.7-2.1,5.57,5.57,0,0,0,.16-1.24q0-2-1.4-2V45.64H57.12v1.94a1.16,1.16,0,0,0-1.08.54,2.26,2.26,0,0,0-.32,1.19A11.43,11.43,0,0,0,56.8,53L68.33,83.36h.22l11.64-31a7,7,0,0,0,.75-2.91,1.83,1.83,0,0,0-.54-1.24,1.7,1.7,0,0,0-1.29-.59V45.64h16v1.94a1.9,1.9,0,0,0-1.78,1.29q-.59,1.29-1.35,3.23L76.42,93.28l-1.13,3a6.4,6.4,0,0,0-.49,2.16,1.94,1.94,0,0,0,2,1.94v1.94h-17v-1.94a6.54,6.54,0,0,0,1.35-.65,1.33,1.33,0,0,0,.7-1.19,6,6,0,0,0-.38-1.94q-.38-1.08-1.24-3L47.86,61.81h-.22L35.89,93a21.91,21.91,0,0,0-1.62,5.28,2,2,0,0,0,1.4,2.16v1.94H19v-1.94a2.87,2.87,0,0,0,1.29-.32A1.11,1.11,0,0,0,20.91,99a5.07,5.07,0,0,0-.38-1.83l-.81-2L2.48,50.6a11.67,11.67,0,0,0-.92-2,2.23,2.23,0,0,0-1.56-1V45.64H16.71Z"/><path class="cls-2" d="M89.89,100.39A3.15,3.15,0,0,0,92.1,99a23.21,23.21,0,0,0,1.56-2.69L113.6,54.37q.75-1.4,1.35-2.59a4.75,4.75,0,0,0,.59-2,1.6,1.6,0,0,0-.75-1.51,6.46,6.46,0,0,0-1.62-.65V45.64h18.22v1.94a8.89,8.89,0,0,0-1.51.59,1.57,1.57,0,0,0-.75,1.56,4.24,4.24,0,0,0,.38,1.72q.38.87,1.13,2.26L153,97.59a3.67,3.67,0,0,0,1.45,1.72,22.16,22.16,0,0,0,2.1,1.08v1.94h-19v-1.94a2.55,2.55,0,0,0,1.08-.32,1,1,0,0,0,.65-1,6.73,6.73,0,0,0-.86-2.8l-4.1-8H108.1L104.22,96a9,9,0,0,0-1.08,3.23q0,1.19,2,1.19v1.94H89.89Zm40.63-20-9.05-20-10.13,20Z"/><path class="cls-2" d="M163.61,100.39a2.45,2.45,0,0,0,1.51-.49,1.7,1.7,0,0,0,.65-1.45V49.3a1.43,1.43,0,0,0-.65-1.35,3,3,0,0,0-1.51-.38V45.64h20.16v1.94a2.36,2.36,0,0,0-1.13.32,1,1,0,0,0-.59,1,3.35,3.35,0,0,0,.43,1.4q.43.86,1,1.83l15.41,28,15.52-27.7q.75-1.4,1.13-2.21a3.51,3.51,0,0,0,.38-1.46q0-1.18-1.4-1.19V45.64h19.94v1.94a2.94,2.94,0,0,0-1.51.38,1.43,1.43,0,0,0-.65,1.35V98.45a1.7,1.7,0,0,0,.65,1.45,2.44,2.44,0,0,0,1.51.49v1.94H217.5v-1.94q2.91,0,2.91-1.94V62.67h-.22l-21.66,39.66h-.32L177,62.56h-.22V98.45q0,1.94,3,1.94v1.94H163.61Z"/><path class="cls-3" d="M348.37,62l5.54-14.46L359.44,62l5.49-14h2.65l-8.14,20.38L353.91,54l-5.54,14.38L340.23,48h2.65Z"/><path class="cls-3" d="M369.35,61.91a3.83,3.83,0,0,0,3.67,4c1.79,0,2.76-.91,3.64-2.37l2,1.12A6.33,6.33,0,0,1,373,68c-3.72,0-6-2.81-6-6.4,0-3.74,2-6.55,5.93-6.55s5.69,2.86,5.69,6.47v.36Zm6.94-1.77a3.28,3.28,0,0,0-3.35-3,3.48,3.48,0,0,0-3.46,3Z"/><path class="cls-3" d="M383.78,57.41h.08a3.5,3.5,0,0,1,3.33-2.34,3.64,3.64,0,0,1,1.92.6L388,57.8a2,2,0,0,0-1.43-.49c-2.52,0-2.83,2.34-2.83,4.32v6h-2.34V55.43h2.34Z"/><path class="cls-3" d="M393.53,57h.05a4,4,0,0,1,3.22-1.9,3.89,3.89,0,0,1,3.51,2.16,4.39,4.39,0,0,1,3.74-2.16c3.2,0,4,2.5,4,5.25V67.6h-2.34V60.71c0-1.56-.21-3.56-2.26-3.56-2.5,0-2.68,2.6-2.68,4.47v6h-2.34V61.15c0-1.59-.08-4-2.24-4-2.5,0-2.7,2.57-2.7,4.47v6h-2.34V55.43h2.34Z"/><path class="cls-3" d="M414.1,55.43v6.73c0,2,.49,3.67,2.81,3.67s2.81-1.72,2.81-3.67V55.43h2.34v7c0,3.33-1.56,5.59-5.15,5.59s-5.15-2.26-5.15-5.59v-7Z"/><path class="cls-3" d="M428.5,67.6h-2.34v-10h-1.27V55.43h1.27V50.78h2.34v4.65h2.29v2.18H428.5Z"/><path class="cls-3" d="M435.05,45v12h.05a4.15,4.15,0,0,1,3.67-2c3.43,0,4.32,2.31,4.32,5.28V67.6h-2.34v-7c0-2.08-.29-3.48-2.68-3.48-3,0-3,2.65-3,4.86V67.6h-2.34V45Z"/><path class="cls-3" d="M458.16,62.69l-2.24,4.91H453.3l9.36-20.44L472,67.6H469.4l-2.24-4.91Zm4.5-10.17-3.48,7.93h7Z"/><path class="cls-3" d="M478.94,58.21a1.8,1.8,0,0,0-1.56-1.07,1.26,1.26,0,0,0-1.27,1.2c0,1.07,1.4,1.53,2.83,2.18s2.81,1.53,2.81,3.46a4.08,4.08,0,0,1-4.19,4,4.48,4.48,0,0,1-4.21-2.73l2-.91a2.42,2.42,0,0,0,2.21,1.56,1.75,1.75,0,0,0,1.85-1.72,1.47,1.47,0,0,0-.86-1.33l-2.29-1.22c-1.35-.73-2.34-1.4-2.34-3.07a3.55,3.55,0,0,1,3.59-3.54,3.62,3.62,0,0,1,3.33,2.13Z"/><path class="cls-3" d="M489.57,58.21A1.8,1.8,0,0,0,488,57.15a1.26,1.26,0,0,0-1.27,1.2c0,1.07,1.4,1.53,2.83,2.18s2.81,1.53,2.81,3.46a4.09,4.09,0,0,1-4.19,4A4.48,4.48,0,0,1,484,65.29l2-.91a2.42,2.42,0,0,0,2.21,1.56A1.74,1.74,0,0,0,490,64.22a1.47,1.47,0,0,0-.86-1.33l-2.29-1.22c-1.35-.73-2.34-1.4-2.34-3.07a3.55,3.55,0,0,1,3.59-3.54,3.62,3.62,0,0,1,3.33,2.13Z"/><path class="cls-3" d="M496.72,61.91a3.83,3.83,0,0,0,3.67,4c1.79,0,2.76-.91,3.64-2.37l2,1.12A6.33,6.33,0,0,1,500.36,68c-3.72,0-6-2.81-6-6.4,0-3.74,2-6.55,5.93-6.55S506,57.93,506,61.54v.36Zm6.94-1.77a3.28,3.28,0,0,0-3.35-3,3.48,3.48,0,0,0-3.46,3Z"/><path class="cls-3" d="M511.33,67.6H509v-10h-1.27V55.43H509V50.78h2.34v4.65h2.29v2.18h-2.29Z"/><path class="cls-3" d="M345.74,81.65h-.05L343.4,94.6h-2.52l4-20.44,6.73,15.44,6.73-15.44,4,20.44h-2.52l-2.29-12.95h-.05L351.62,95Z"/><path class="cls-3" d="M376.34,94.6H374V92.7H374A5,5,0,0,1,369.82,95c-3.72,0-5.82-3.09-5.82-6.58,0-3.33,2.21-6.37,5.75-6.37A5,5,0,0,1,374,84.46H374v-2h2.34Zm-2.21-6.08c0-2.37-1.43-4.37-4-4.37s-3.85,2.11-3.85,4.37,1.38,4.42,3.85,4.42S374.13,90.91,374.13,88.52Z"/><path class="cls-3" d="M382.38,84.07h.05a4.15,4.15,0,0,1,3.67-2c3.43,0,4.32,2.31,4.32,5.28V94.6h-2.34v-7c0-2.08-.29-3.48-2.68-3.48-3,0-3,2.65-3,4.86V94.6H380V82.43h2.34Z"/><path class="cls-3" d="M405.7,94.6h-2.34V92.7h-.05A5,5,0,0,1,399.17,95c-3.72,0-5.82-3.09-5.82-6.58,0-3.33,2.21-6.37,5.75-6.37a5,5,0,0,1,4.21,2.39h.05v-2h2.34Zm-2.21-6.08c0-2.37-1.43-4.37-4-4.37s-3.85,2.11-3.85,4.37,1.38,4.42,3.85,4.42S403.49,90.91,403.49,88.52Z"/><path class="cls-3" d="M420.78,94.37c0,4.19-1.2,7.2-5.93,7.2-3.38,0-5.82-2.08-5.88-5.51h2.34A3.31,3.31,0,0,0,415,99.49c2.89,0,3.48-2,3.48-4.47V92.7h-.05A5,5,0,0,1,414.25,95c-3.74,0-5.82-3.09-5.82-6.58,0-3.33,2.21-6.37,5.72-6.37a4.92,4.92,0,0,1,4.24,2.44h.05V82.43h2.34Zm-2.21-5.85c0-2.37-1.43-4.37-4-4.37s-3.85,2.11-3.85,4.37,1.38,4.42,3.85,4.42S418.57,90.91,418.57,88.52Z"/><path class="cls-3" d="M425.87,88.91a3.83,3.83,0,0,0,3.67,4c1.79,0,2.76-.91,3.64-2.37l2,1.12A6.33,6.33,0,0,1,429.51,95c-3.72,0-6-2.81-6-6.4,0-3.74,2-6.55,5.93-6.55s5.69,2.86,5.69,6.47v.36Zm6.94-1.77a3.28,3.28,0,0,0-3.35-3,3.48,3.48,0,0,0-3.46,3Z"/><path class="cls-3" d="M440.07,84h.05a4,4,0,0,1,3.22-1.9,3.89,3.89,0,0,1,3.51,2.16,4.39,4.39,0,0,1,3.74-2.16c3.2,0,4,2.5,4,5.25V94.6h-2.34V87.71c0-1.56-.21-3.56-2.26-3.56-2.5,0-2.68,2.6-2.68,4.47v6H445V88.15c0-1.59-.08-4-2.24-4-2.5,0-2.7,2.57-2.7,4.47v6h-2.34V82.43h2.34Z"/><path class="cls-3" d="M459.8,88.91a3.83,3.83,0,0,0,3.67,4c1.79,0,2.76-.91,3.64-2.37l2,1.12A6.33,6.33,0,0,1,463.44,95c-3.72,0-6-2.81-6-6.4,0-3.74,2-6.55,5.93-6.55s5.69,2.86,5.69,6.47v.36Zm6.94-1.77a3.28,3.28,0,0,0-3.35-3,3.48,3.48,0,0,0-3.46,3Z"/><path class="cls-3" d="M474.08,84.07h.05a4.15,4.15,0,0,1,3.67-2c3.43,0,4.32,2.31,4.32,5.28V94.6h-2.34v-7c0-2.08-.29-3.48-2.68-3.48-3,0-3,2.65-3,4.86V94.6h-2.34V82.43h2.34Z"/><path class="cls-3" d="M488.66,94.6h-2.34v-10H485V82.43h1.27V77.78h2.34v4.65h2.29v2.18h-2.29Z"/></g></g></svg>